# xmcd
#
# Track frame offsets:
#	150
#	13352
#	24945
#	38556
#	54098
#	70278
#	84155
#	96291
#	106511
#	117866
#	129442
#	140976
#	155805
#	167625
#	178316
#	192397
#	207252
#
# Disc length: 2887
#
# Revision: 1
# Processed by: cddbd v1.5.1PL0 Copyright (c) Steve Scherf et al.
# Submitted via: NeoAudio 9.9.9
# Normalized: r0:TDELIM( - ),TSWAP
#
DISCID=e50b4511
DTITLE=get up and dance - christmas special 18
DYEAR=2002
DGENRE=Country
TTITLE0=the bellamy brithers - a cowboy's holiday
TTITLE1=trisha yearwood - away in a mangerf
TTITLE2=jack franzen - big foot rides with santa
TTITLE3=dale watson - christmas love
TTITLE4=clint black - christmas for every boy and girl
TTITLE5=dale watson - christmas in vegas
TTITLE6=sammy kershaw - frosty the snowman
TTITLE7=garth brooks - home for the holiday
TTITLE8=the geenzinslaws - lighten up lt's christmas
TTITLE9=randy travis - pretty paper
TTITLE10=trisha yearwood - reindeer boogie
TTITLE11=the ballamy brothers - rudolph the red-nosed reindeer
TTITLE12=clint black - til's santa gone
TTITLE13=sammy kershaw - up on the housetop
TTITLE14=billy gilman - warm and fuzzy
TTITLE15=sherrie austin - winter wonderland
TTITLE16=garth brooks - let it snow
EXTD=YEAR: 2002
EXTT0=
EXTT1=
EXTT2=
EXTT3=
EXTT4=
EXTT5=
EXTT6=
EXTT7=
EXTT8=
EXTT9=
EXTT10=
EXTT11=
EXTT12=
EXTT13=
EXTT14=
EXTT15=
EXTT16=
PLAYORDER=
